<svg width="20" height="16" viewBox="0 0 20 16" fill="none" xmlns="http://www.w3.org/2000/svg">
<path d="M19.2857 0H0.714286C0.319196 0 0 0.319196 0 0.714286V15C0 15.3951 0.319196 15.7143 0.714286 15.7143H19.2857C19.6808 15.7143 20 15.3951 20 15V0.714286C20 0.319196 19.6808 0 19.2857 0ZM17.4821 2.4308L10.4397 7.91072C10.2656 8.04688 10.0223 8.04688 9.84821 7.91072L2.80357 2.4308C2.77702 2.41031 2.75754 2.38202 2.74787 2.3499C2.7382 2.31778 2.73882 2.28344 2.74965 2.25169C2.76048 2.21994 2.78097 2.19238 2.80825 2.17286C2.83554 2.15334 2.86824 2.14285 2.90179 2.14286H17.3839C17.4175 2.14285 17.4502 2.15334 17.4775 2.17286C17.5047 2.19238 17.5252 2.21994 17.5361 2.25169C17.5469 2.28344 17.5475 2.31778 17.5378 2.3499C17.5282 2.38202 17.5087 2.41031 17.4821 2.4308V2.4308Z" fill="white"/>
</svg>
