<svg width="21" height="21" viewBox="0 0 21 21" fill="none" xmlns="http://www.w3.org/2000/svg">
<path fill-rule="evenodd" clip-rule="evenodd" d="M0.833334 2.50424C0.833334 2.06109 1.00938 1.63609 1.32273 1.32273C1.63609 1.00938 2.06109 0.833334 2.50424 0.833334H19.1606C19.3802 0.832976 19.5977 0.875937 19.8007 0.959759C20.0037 1.04358 20.1882 1.16662 20.3436 1.32182C20.4989 1.47703 20.6222 1.66136 20.7062 1.86425C20.7903 2.06715 20.8335 2.28463 20.8333 2.50424V19.1606C20.8336 19.3803 20.7905 19.5978 20.7066 19.8008C20.6227 20.0038 20.4995 20.1882 20.3443 20.3436C20.189 20.499 20.0046 20.6222 19.8016 20.7062C19.5987 20.7903 19.3812 20.8335 19.1615 20.8333H2.50424C2.28474 20.8333 2.06739 20.7901 1.8646 20.7061C1.66182 20.622 1.47758 20.4989 1.32241 20.3436C1.16724 20.1884 1.04418 20.004 0.960264 19.8012C0.876346 19.5984 0.833215 19.381 0.833334 19.1615V2.50424ZM8.7497 8.45879H11.4579V9.81879C11.8488 9.03697 12.8488 8.33333 14.3515 8.33333C17.2324 8.33333 17.9152 9.89061 17.9152 12.7479V18.0406H14.9997V13.3988C14.9997 11.7715 14.6088 10.8533 13.6161 10.8533C12.2388 10.8533 11.6661 11.8433 11.6661 13.3988V18.0406H8.7497V8.45879ZM3.7497 17.9161H6.66606V8.33333H3.7497V17.9151V17.9161ZM7.08333 5.20788C7.08883 5.45758 7.0444 5.70587 6.95264 5.93816C6.86089 6.17046 6.72365 6.38209 6.549 6.56064C6.37434 6.73918 6.16579 6.88104 5.93557 6.97788C5.70534 7.07473 5.4581 7.12462 5.20833 7.12462C4.95857 7.12462 4.71132 7.07473 4.4811 6.97788C4.25088 6.88104 4.04232 6.73918 3.86767 6.56064C3.69301 6.38209 3.55578 6.17046 3.46403 5.93816C3.37227 5.70587 3.32784 5.45758 3.33333 5.20788C3.34413 4.71775 3.54641 4.25133 3.89687 3.9085C4.24732 3.56568 4.71808 3.37371 5.20833 3.37371C5.69858 3.37371 6.16935 3.56568 6.5198 3.9085C6.87026 4.25133 7.07254 4.71775 7.08333 5.20788V5.20788Z" fill="white"/>
</svg>
