<svg width="32" height="38" viewBox="0 0 57 38" fill="none" xmlns="http://www.w3.org/2000/svg">
<path d="M1.98438 36.375C1.48438 36.375 1.07812 36.25 0.765625 36C0.484375 35.7188 0.296875 35.4062 0.203125 35.0625C0.109375 34.6875 0.109375 34.3125 0.203125 33.9375C0.328125 33.5625 0.546875 33.25 0.859375 33C1.10938 31.9375 1.17188 30.875 1.04688 29.8125C0.921875 28.7188 0.796875 27.6406 0.671875 26.5781C0.515625 25.2656 0.46875 23.9844 0.53125 22.7344C0.59375 21.4531 0.71875 20.1562 0.90625 18.8438C1.09375 17.5312 1.29688 16.2344 1.51562 14.9531C1.73438 13.6406 1.92188 12.3281 2.07812 11.0156C2.23438 9.60938 2.35938 8.21875 2.45312 6.84375C2.57812 5.46875 2.67188 4.07812 2.73438 2.67188C2.73438 2.07813 2.9375 1.625 3.34375 1.3125C3.75 1 4.1875 0.84375 4.65625 0.84375C5.125 0.84375 5.54688 1 5.92188 1.3125C6.29688 1.625 6.46875 2.07813 6.4375 2.67188C6.375 4.14063 6.28125 5.59375 6.15625 7.03125C6.0625 8.46875 5.9375 9.9375 5.78125 11.4375C5.625 12.8125 5.42188 14.1562 5.17188 15.4688C4.95312 16.7812 4.75 18.125 4.5625 19.5C4.375 20.8125 4.28125 22.1094 4.28125 23.3906C4.28125 24.6406 4.35938 25.9219 4.51562 27.2344C4.60938 28.1406 4.6875 29.0469 4.75 29.9531C4.84375 30.8594 4.82812 31.7656 4.70312 32.6719C7.04688 32.7344 9.39062 32.8594 11.7344 33.0469C14.0781 33.2031 16.4219 33.3281 18.7656 33.4219C19.3594 33.4531 19.7969 33.6719 20.0781 34.0781C20.3906 34.4844 20.5469 34.9219 20.5469 35.3906C20.5469 35.8594 20.3906 36.2812 20.0781 36.6562C19.7969 37.0312 19.3594 37.2031 18.7656 37.1719C15.9219 37.0469 13.1094 36.875 10.3281 36.6562C7.57812 36.4688 4.79688 36.375 1.98438 36.375ZM17.3594 7.03125C16.8594 7.09375 16.4219 6.92187 16.0469 6.51562C15.6719 6.10938 15.4844 5.65625 15.4844 5.15625C15.4844 4.625 15.6719 4.20312 16.0469 3.89062C16.4219 3.54687 16.8594 3.34375 17.3594 3.28125C18.9219 3.15625 20.4688 3.09375 22 3.09375C23.5312 3.09375 25.0781 3.14062 26.6406 3.23438C27.0781 3.07812 27.5469 3.10938 28.0469 3.32812C30.9531 3.54687 33.8906 3.92187 36.8594 4.45312C37.3594 4.54688 37.7344 4.84375 37.9844 5.34375C38.2344 5.84375 38.2812 6.3125 38.125 6.75C37.9688 7.28125 37.6719 7.65625 37.2344 7.875C36.8281 8.0625 36.3594 8.125 35.8281 8.0625C34.6406 7.84375 33.4688 7.65625 32.3125 7.5C31.1562 7.34375 29.9844 7.21875 28.7969 7.125C28.3594 9.3125 28.0938 11.5 28 13.6875C27.9375 15.875 28.0156 18.0938 28.2344 20.3438C28.4531 22.6562 28.7656 24.9531 29.1719 27.2344C29.5781 29.4844 30 31.75 30.4375 34.0312C30.5312 34.5625 30.4688 35.0469 30.25 35.4844C30.0625 35.8906 29.7031 36.1719 29.1719 36.3281C28.7031 36.4844 28.2188 36.4375 27.7188 36.1875C27.25 35.9375 26.9688 35.5625 26.875 35.0625C26.375 32.5312 25.8906 30.0312 25.4219 27.5625C24.9844 25.0625 24.6562 22.5469 24.4375 20.0156C24.25 17.7969 24.2031 15.5938 24.2969 13.4062C24.3906 11.2188 24.6406 9.04688 25.0469 6.89062C22.4844 6.79688 19.9219 6.84375 17.3594 7.03125ZM46.2812 23.1562C45.5312 22.375 44.7344 21.6562 43.8906 21C43.0469 20.3125 42.2031 19.6406 41.3594 18.9844C40.5469 18.2969 39.75 17.5938 38.9688 16.875C38.1875 16.125 37.4688 15.3125 36.8125 14.4375C36.125 13.5312 35.5781 12.5469 35.1719 11.4844C34.7969 10.3906 34.7344 9.26562 34.9844 8.10938C35.2344 6.85938 35.8438 5.76562 36.8125 4.82812C37.7812 3.89062 38.8281 3.15625 39.9531 2.625C41.1719 2.09375 42.4062 1.73438 43.6562 1.54688C44.9062 1.32813 46.1719 1.20312 47.4531 1.17188C48.7344 1.10937 50.0156 1.10937 51.2969 1.17188C52.6094 1.20312 53.9062 1.1875 55.1875 1.125C55.7812 1.09375 56.2188 1.26562 56.5 1.64062C56.8125 2.01562 56.9688 2.4375 56.9688 2.90625C56.9688 3.375 56.8125 3.8125 56.5 4.21875C56.2188 4.59375 55.7812 4.79688 55.1875 4.82812C54.2812 4.89063 53.375 4.92188 52.4688 4.92188C51.5938 4.89063 50.7031 4.85937 49.7969 4.82812C48.5781 4.79688 47.3438 4.8125 46.0938 4.875C44.875 4.9375 43.6719 5.1875 42.4844 5.625C42.0781 5.78125 41.6406 5.98437 41.1719 6.23438C40.7031 6.45312 40.2656 6.73437 39.8594 7.07812C39.4844 7.42188 39.1719 7.79688 38.9219 8.20312C38.6719 8.60937 38.5625 9.04688 38.5938 9.51562C38.625 9.95313 38.7344 10.3906 38.9219 10.8281C39.1094 11.2344 39.3438 11.6406 39.625 12.0469C39.9375 12.4531 40.2656 12.8438 40.6094 13.2188C40.9531 13.5938 41.2812 13.9375 41.5938 14.25C42.3125 14.9688 43.0625 15.625 43.8438 16.2188C44.625 16.8125 45.4062 17.4219 46.1875 18.0469C47 18.7031 47.8125 19.4375 48.625 20.25C49.4688 21.0312 50.1875 21.8906 50.7812 22.8281C51.4062 23.7344 51.8594 24.7031 52.1406 25.7344C52.4531 26.7656 52.5 27.8594 52.2812 29.0156C52.0625 30.1094 51.6406 31.0469 51.0156 31.8281C50.4219 32.5781 49.7031 33.2656 48.8594 33.8906C48.0469 34.4844 47.1719 35.0312 46.2344 35.5312C45.3281 36 44.4531 36.4844 43.6094 36.9844C43.0781 37.2969 42.5781 37.3594 42.1094 37.1719C41.6719 36.9844 41.3281 36.6875 41.0781 36.2812C40.8594 35.875 40.7656 35.4375 40.7969 34.9688C40.8594 34.4688 41.1562 34.0625 41.6875 33.75C42.4375 33.3125 43.1875 32.9062 43.9375 32.5312C44.6875 32.1562 45.4219 31.7344 46.1406 31.2656C46.8281 30.8281 47.4219 30.3125 47.9219 29.7188C48.4531 29.0938 48.7188 28.375 48.7188 27.5625C48.6875 26.75 48.4219 25.9688 47.9219 25.2188C47.4531 24.4688 46.9062 23.7812 46.2812 23.1562Z" fill="white"/>
</svg>
