<svg width="17" height="17" viewBox="0 0 17 17" fill="none" xmlns="http://www.w3.org/2000/svg">
<path d="M10.5734 0.630372C10.6486 0.630238 10.7232 0.644938 10.7927 0.673631C10.8623 0.702325 10.9255 0.74445 10.9788 0.797599L16.6485 6.46727C16.7558 6.57466 16.8162 6.7203 16.8162 6.87216C16.8162 7.02402 16.7558 7.16966 16.6485 7.27706C16.0987 7.82684 15.4206 7.95054 14.927 7.95054C14.7242 7.95054 14.5433 7.92993 14.4001 7.90587L10.8104 11.4955C10.9049 11.8763 10.9663 12.2645 10.9937 12.6558C11.0464 13.4599 10.9571 14.5881 10.169 15.3761C10.0616 15.4835 9.91599 15.5438 9.76413 15.5438C9.61228 15.5438 9.46663 15.4835 9.35924 15.3761L6.11894 12.1369L2.47431 15.7816C2.25096 16.0049 1.07809 16.8147 0.854737 16.5913C0.631386 16.368 1.44118 15.194 1.66453 14.9718L5.30915 11.3271L2.06999 8.08684C1.96263 7.97945 1.90232 7.83381 1.90232 7.68195C1.90232 7.53009 1.96263 7.38445 2.06999 7.27706C2.85802 6.48903 3.98623 6.39854 4.79029 6.45238C5.18162 6.4798 5.56983 6.54111 5.95057 6.63564L9.54021 3.04714C9.51025 2.87272 9.49492 2.69609 9.49439 2.51912C9.49439 2.0266 9.6181 1.34853 10.169 0.797599C10.2764 0.69054 10.4218 0.630404 10.5734 0.630372V0.630372ZM10.7131 3.04943V3.04714V3.04943ZM10.7131 3.04714V3.04943C10.7462 3.15019 10.7506 3.25815 10.7259 3.36129C10.7013 3.46443 10.6484 3.5587 10.5734 3.63358L6.52441 7.68138C6.44917 7.75629 6.3546 7.80881 6.25124 7.83308C6.14789 7.85735 6.03982 7.85242 5.93911 7.81882H5.93682L5.92079 7.81424C5.81182 7.7816 5.7018 7.75257 5.59091 7.72719C5.30278 7.65998 5.0098 7.61556 4.71469 7.59433C4.23134 7.56226 3.75715 7.60349 3.36886 7.76614L9.67995 14.0761C9.84145 13.6866 9.88268 13.2136 9.85061 12.7302C9.82143 12.321 9.74769 11.9162 9.6307 11.523L9.62611 11.5081V11.507C9.59229 11.4061 9.58724 11.2978 9.61151 11.1942C9.63579 11.0906 9.68844 10.9959 9.76356 10.9205L13.8137 6.87159C13.8916 6.79312 13.9907 6.73893 14.0988 6.71555C14.207 6.69217 14.3196 6.70062 14.423 6.73987L14.533 6.76507C14.6326 6.78454 14.7712 6.80401 14.927 6.80401C15.0575 6.80401 15.1904 6.79141 15.3198 6.7582L10.6867 2.12625C10.6535 2.25568 10.6409 2.38969 10.6409 2.51912C10.6415 2.69709 10.6654 2.87422 10.7119 3.04599L10.7131 3.04714Z" fill="white"/>
</svg>
